<svg width="32" height="32" viewBox="0 0 32 32" fill="none" xmlns="http://www.w3.org/2000/svg">
<path d="M5 11.6667C5 7.98477 7.98477 5 11.6667 5H20.3333C24.0152 5 27 7.98477 27 11.6667C27 12.403 26.403 13 25.6667 13H6.33333C5.59695 13 5 12.403 5 11.6667Z" fill="black"/>
<path d="M5 24C5 23.4477 5.44772 23 6 23H26C26.5523 23 27 23.4477 27 24C27 25.6569 25.6569 27 24 27H8C6.34315 27 5 25.6569 5 24Z" fill="black"/>
<path d="M5.5 18C4.67157 18 4 18.6716 4 19.5C4 20.3284 4.67157 21 5.5 21H26.5C27.3284 21 28 20.3284 28 19.5C28 18.6716 27.3284 18 26.5 18H5.5Z" fill="black"/>
<path d="M5 16C5 15.4477 5.44772 15 6 15H17C17.5523 15 18 15.4477 18 16C18 16.5523 17.5523 17 17 17H6C5.44772 17 5 16.5523 5 16Z" fill="black"/>
<path d="M20 15C19.4477 15 19 15.4477 19 16C19 16.5523 19.4477 17 20 17H26C26.5523 17 27 16.5523 27 16C27 15.4477 26.5523 15 26 15H20Z" fill="black"/>
</svg>
