<svg width="32" height="32" viewBox="0 0 32 32" fill="none" xmlns="http://www.w3.org/2000/svg">
<path d="M10 5C9.44774 5 9.00002 5.44772 9.00002 6V10C9.00002 10.5523 9.44774 11 10 11C10.5523 11 11 10.5523 11 10V6C11 5.44772 10.5523 5 10 5Z" fill="#0D0D0D"/>
<path fill-rule="evenodd" clip-rule="evenodd" d="M5.33124 14.2552L8.49791 26.2552C8.61375 26.6941 9.0108 27 9.46481 27H19.5352C19.9893 27 20.3863 26.6941 20.5021 26.2552L21.1036 23.9758C22.0476 24.0528 23.3787 23.9651 24.5475 23.4203C25.1923 23.1198 25.8157 22.6664 26.2764 21.9983C26.7419 21.3233 27 20.4885 27 19.5C27 18.5115 26.7419 17.6767 26.2764 17.0017C25.8157 16.3336 25.1923 15.8802 24.5475 15.5797C24.1823 15.4094 23.8012 15.2838 23.4211 15.194L23.6688 14.2552C23.8362 13.6209 23.3579 13 22.7019 13H6.29814C5.64219 13 5.16387 13.6209 5.33124 14.2552ZM23.7026 21.6076C23.0602 21.907 22.2787 22.0089 21.6252 21.9995L22.9105 17.1287C23.185 17.1904 23.4542 17.2767 23.7026 17.3924C24.0994 17.5774 24.4135 17.8233 24.6299 18.1371C24.8415 18.444 25 18.8734 25 19.5C25 20.1266 24.8415 20.556 24.6299 20.8629C24.4135 21.1767 24.0994 21.4226 23.7026 21.6076Z" fill="#0D0D0D"/>
<path d="M13 7C13 6.44772 13.4477 6 14 6C14.5523 6 15 6.44772 15 7V10C15 10.5523 14.5523 11 14 11C13.4477 11 13 10.5523 13 10V7Z" fill="#0D0D0D"/>
<path d="M18 5C17.4477 5 17 5.44772 17 6V10C17 10.5523 17.4477 11 18 11C18.5523 11 19 10.5523 19 10V6C19 5.44772 18.5523 5 18 5Z" fill="#0D0D0D"/>
</svg>
