<svg width="32" height="32" viewBox="0 0 32 32" fill="none" xmlns="http://www.w3.org/2000/svg">
<path fill-rule="evenodd" clip-rule="evenodd" d="M8.93761 6.35528C8.75882 5.8311 9.0125 5.25166 9.50422 5.06107C9.99593 4.87047 10.5395 5.1409 10.7183 5.66508L12.2028 10.0175C12.3188 10.188 12.4189 10.3741 12.5 10.5742C12.8806 9.76202 13.5474 9.10143 14.4154 8.77976L15.3191 8.44483C15.8556 8.24602 16.4071 8.19956 16.9322 8.28405C17.6356 6.80538 19.0752 5.79195 20.7369 5.79195C23.0913 5.79195 25 7.82663 25 10.3365C25 11.6531 24.4749 12.8388 23.6357 13.6688L22.4597 24.3243C22.2913 25.8501 21.0783 27 19.6371 27H11.4156C9.97443 27 8.76138 25.8501 8.59299 24.3243L7.00658 9.94958C6.94545 9.39564 7.31713 8.89376 7.83676 8.82859C8.15945 8.78812 8.46331 8.92558 8.66193 9.16825C8.79304 9.09208 8.93174 9.02633 9.07743 8.97234C9.30895 8.88654 9.54394 8.83568 9.77733 8.81718L8.93761 6.35528ZM16.4742 10.2649C16.298 10.2593 16.1178 10.2872 15.9413 10.3526L15.0376 10.6876C14.5291 10.876 14.1775 11.3288 14.0712 11.8514H16.7163C16.5592 11.3776 16.4737 10.8677 16.4737 10.3365C16.4737 10.3126 16.4739 10.2888 16.4742 10.2649ZM10.8123 11.8514L10.5404 11.0542C10.3174 10.8467 9.99916 10.7691 9.69961 10.8802C9.31254 11.0236 9.0843 11.4347 9.13384 11.8514H10.8123Z" fill="black"/>
</svg>
