<svg width="32" height="32" viewBox="0 0 32 32" fill="none" xmlns="http://www.w3.org/2000/svg">
<path fill-rule="evenodd" clip-rule="evenodd" d="M18.4769 2.4676C18.0065 2.19604 17.4248 2.36792 17.1776 2.8515L15.5679 6.00001H12.8333C9.61167 6.00001 7 8.61168 7 11.8333C7 12.4777 7.52233 13 8.16667 13H23.8333C24.4777 13 25 12.4777 25 11.8333C25 8.61168 22.3883 6.00001 19.1667 6.00001H17.774L18.8809 3.8349C19.1281 3.35132 18.9472 2.73916 18.4769 2.4676ZM19.1667 8.00001H12.8333C11.0024 8.00001 9.47132 9.28361 9.09083 11H22.9092C22.5287 9.28361 20.9976 8.00001 19.1667 8.00001Z" fill="black"/>
<path d="M9.49824 25.4272L7.26532 15.2136C7.12898 14.59 7.6039 14 8.24224 14H23.7578C24.3961 14 24.871 14.59 24.7347 15.2136L22.5018 25.4272C22.301 26.3454 21.4879 27 20.5479 27H11.4521C10.5121 27 9.699 26.3454 9.49824 25.4272Z" fill="black"/>
</svg>
