<svg width="32" height="32" viewBox="0 0 32 32" fill="none" xmlns="http://www.w3.org/2000/svg">
<path d="M12.7778 8.3C11.7959 8.3 11 9.09594 11 10.0778V10.9857C11 11.9325 11.7675 12.7 12.7143 12.7H13.0444C14.1245 12.7 15 11.8245 15 10.7444V10.5222C15 9.29492 14.0051 8.3 12.7778 8.3Z" fill="black"/>
<path d="M8.77778 19.3C7.79594 19.3 7 20.0959 7 21.0778V21.9857C7 22.9325 7.76751 23.7 8.71429 23.7H9.04444C10.1245 23.7 11 22.8245 11 21.7444V21.5222C11 20.2949 10.0051 19.3 8.77778 19.3Z" fill="black"/>
<path fill-rule="evenodd" clip-rule="evenodd" d="M13 5C10.7909 5 9 6.79086 9 9V15C9 15.5523 9.44772 16 10 16H9C6.79086 16 5 17.7909 5 20V26C5 26.5523 5.44772 27 6 27H26C26.5523 27 27 26.5523 27 26V20C27 17.7909 25.2091 16 23 16H22C22.5523 16 23 15.5523 23 15V9C23 6.79086 21.2091 5 19 5H13ZM17 16H15C15.3453 16 15.6804 16.0438 16 16.126C16.3196 16.0438 16.6547 16 17 16ZM19 25.9V20C19 18.9269 18.5774 17.9525 17.8896 17.2341C19.1121 17.6132 20 18.7529 20 20.1V24.9C20 25.4523 19.5523 25.9 19 25.9ZM10 9.1C10 7.44315 11.3431 6.1 13 6.1C14.6569 6.1 16 7.44315 16 9.1V13.9C16 14.4523 15.5523 14.9 15 14.9H11C10.4477 14.9 10 14.4523 10 13.9V9.1ZM6 20.1C6 18.4431 7.34315 17.1 9 17.1C10.6569 17.1 12 18.4431 12 20.1V24.9C12 25.4523 11.5523 25.9 11 25.9H7C6.44772 25.9 6 25.4523 6 24.9V20.1Z" fill="black"/>
</svg>
