<svg width="132" height="113" viewBox="0 0 132 113" fill="none" xmlns="http://www.w3.org/2000/svg">
<g filter="url(#filter0_dd_509_3131)">
<path d="M17.7707 20.2122C17.5311 17.418 20.1457 15.217 22.9336 15.866L41.9861 20.3013C45.3389 21.0818 46.3846 25.2529 43.7775 27.4476L26.3627 42.1077C23.7557 44.3024 19.6966 42.668 19.4084 39.3076L17.7707 20.2122Z" fill="url(#paint0_linear_509_3131)"/>
<path d="M109.865 16.6027C112.729 15.9309 115.39 18.2633 115.021 21.1219L112.64 39.5786C112.214 42.8824 108.172 44.366 105.641 42.1477L89.5336 28.0287C87.0028 25.8103 88.0671 21.717 91.3765 20.9405L109.865 16.6027Z" fill="url(#paint1_linear_509_3131)"/>
<rect x="19.8916" y="20.4639" width="96.6194" height="75.0748" rx="37.5374" fill="url(#paint2_linear_509_3131)"/>
<path d="M52.4189 71.904C48.5798 71.904 45.3566 75.156 46.997 78.6271C48.0589 80.8741 49.6523 82.9391 51.71 84.684C55.707 88.0734 61.128 89.9776 66.7806 89.9776C72.4332 89.9776 77.8543 88.0734 81.8513 84.684C83.9089 82.9391 85.5024 80.8741 86.5643 78.6271C88.2047 75.156 84.9815 71.904 81.1424 71.904L66.7806 71.904L52.4189 71.904Z" fill="#E53935"/>
<path d="M69.6981 69.0279C68.5851 70.4788 66.3986 70.4788 65.2856 69.0279L62.9246 65.9499C61.5215 64.1208 62.8256 61.477 65.1308 61.477L69.8529 61.477C72.1581 61.477 73.4622 64.1208 72.0592 65.9499L69.6981 69.0279Z" fill="black"/>
<path d="M48.0493 61.8204C47.6364 64.2324 46.7599 66.2871 45.583 67.602C44.406 68.917 43.0088 69.4027 41.6512 68.9687C40.2936 68.5347 39.0682 67.2106 38.2031 65.2428C37.3379 63.275 36.8919 60.7976 36.9481 58.2715C37.0042 55.7455 37.5587 53.3429 38.5083 51.5109C39.458 49.6789 40.7381 48.5422 42.1104 48.3125C43.4827 48.0828 44.8538 48.7756 45.9685 50.262C47.0831 51.7484 47.8655 53.9272 48.1699 56.3929L42.6269 58.6964L48.0493 61.8204Z" fill="#0D0D0D"/>
<path d="M35.0585 94.3572L40.1742 88.2402C41.3212 86.8687 40.8377 84.7925 39.2042 84.0101C38.4144 83.6317 37.8419 82.9114 37.6677 82.068L37.301 80.2932C37.0897 79.2705 36.3074 78.4494 35.2803 78.1724L33.8302 77.7812C32.8471 77.516 32.0846 76.751 31.8375 75.7817L30.8368 71.8571C30.605 70.9478 29.918 70.2139 29.0132 69.9089L27.957 69.5528C27.1671 69.2866 26.5941 68.6095 26.4739 67.8003C26.2537 66.3187 24.608 65.4855 23.254 66.17L14.346 70.6739C12.3059 71.7053 12.3398 74.5773 14.404 75.5836L18.0892 77.3802C19.2162 77.9297 19.8378 79.1436 19.6115 80.353L18.7667 84.8688C18.4134 86.7571 20.0958 88.4199 22.0261 88.0902L26.0417 87.4044C27.5157 87.1527 28.9383 88.0795 29.2751 89.5111L30.1454 93.2107C30.6707 95.4431 33.5822 96.1225 35.0585 94.3572Z" fill="url(#paint3_linear_509_3131)"/>
<path d="M97.8497 94.3572L92.734 88.2402C91.587 86.8687 92.0705 84.7925 93.704 84.0101C94.4938 83.6317 95.0663 82.9114 95.2405 82.068L95.6072 80.2932C95.8185 79.2705 96.6008 78.4494 97.6279 78.1724L99.078 77.7812C100.061 77.516 100.824 76.751 101.071 75.7817L102.071 71.8571C102.303 70.9478 102.99 70.2139 103.895 69.9089L104.951 69.5528C105.741 69.2866 106.314 68.6095 106.434 67.8003C106.655 66.3187 108.3 65.4855 109.654 66.17L118.562 70.6739C120.602 71.7053 120.568 74.5773 118.504 75.5836L114.819 77.3802C113.692 77.9297 113.07 79.1436 113.297 80.353L114.141 84.8688C114.495 86.7571 112.812 88.4199 110.882 88.0902L106.867 87.4044C105.392 87.1527 103.97 88.0795 103.633 89.5111L102.763 93.2107C102.238 95.4431 99.326 96.1225 97.8497 94.3572Z" fill="url(#paint4_linear_509_3131)"/>
<path d="M117.707 70.1383L110.63 68.9695C109.562 68.7932 109.041 67.5653 109.657 66.6749C110.006 66.1701 110.006 65.5021 109.657 64.9972L109.355 64.5608C108.767 63.7095 108.886 62.5566 109.637 61.8441C110.356 61.1608 110.499 60.0674 109.98 59.222L109.024 57.6656C108.615 57.0003 108.699 56.1445 109.228 55.5704L109.558 55.212C109.949 54.7877 109.973 54.1422 109.616 53.6894C109.051 52.9741 109.481 51.916 110.385 51.7983L118.828 50.6987C120.907 50.4278 122.332 52.7406 121.154 54.4759C120.385 55.6076 120.701 57.1501 121.853 57.8885L122.157 58.0839C124.044 59.2941 123.743 62.1384 121.645 62.9268L121.203 63.0929C119.804 63.6184 119.248 65.3009 120.058 66.5564C121.159 68.2648 119.712 70.4696 117.707 70.1383Z" fill="url(#paint5_linear_509_3131)"/>
<path d="M20.5998 69.4954L24.0319 68.718C25.1273 68.4699 25.6983 67.2589 25.193 66.2559C24.9466 65.767 24.9466 65.1902 25.193 64.7013L25.4872 64.1174C25.9153 63.2676 25.8192 62.2477 25.2397 61.493C24.685 60.7706 24.5714 59.8021 24.9436 58.9708L25.7089 57.2621C26.0066 56.5974 25.9407 55.8262 25.5346 55.2217L25.2729 54.8321C24.9842 54.4024 24.965 53.846 25.2233 53.3974C25.6926 52.5824 25.2112 51.5486 24.2854 51.3832L19.8105 50.5839C17.6682 50.2012 16.0026 52.4198 16.968 54.3702C17.5004 55.4457 17.244 56.7447 16.343 57.5373L15.8485 57.9722C14.3779 59.2658 14.6702 61.6339 16.4113 62.531L16.6317 62.6446C17.8388 63.2666 18.3371 64.7323 17.7592 65.9611C16.8651 67.8624 18.5507 69.9596 20.5998 69.4954Z" fill="url(#paint6_linear_509_3131)"/>
<path d="M61.0977 77.4651H72.4646V87.197C72.4646 89.5005 70.5973 91.3678 68.2938 91.3678H65.2685C62.965 91.3678 61.0977 89.5005 61.0977 87.197V77.4651Z" fill="url(#paint7_linear_509_3131)"/>
<path d="M55.4141 74.6846H58.2558V76.9915C58.2558 77.2531 58.0438 77.4651 57.7822 77.4651C56.4743 77.4651 55.4141 76.4049 55.4141 75.097V74.6846Z" fill="url(#paint8_linear_509_3131)"/>
<path d="M100.845 61.5511C100.432 63.9631 99.5558 66.0177 98.3789 67.3327C97.2019 68.6477 95.8047 69.1333 94.4471 68.6993C93.0895 68.2653 91.8641 66.9412 90.999 64.9734C90.1338 63.0057 89.6878 60.5282 89.744 58.0022C89.8001 55.4761 90.3546 53.0735 91.3042 51.2415C92.2539 49.4095 93.534 48.2729 94.9063 48.0431C96.2786 47.8134 97.6497 48.5062 98.7644 49.9926C99.879 51.4791 100.661 53.6578 100.966 56.1235L95.4228 58.4271L100.845 61.5511Z" fill="#0D0D0D"/>
</g>
<defs>
<filter id="filter0_dd_509_3131" x="0.135938" y="11.0516" width="127.975" height="101.387" filterUnits="userSpaceOnUse" color-interpolation-filters="sRGB">
<feFlood flood-opacity="0" result="BackgroundImageFix"/>
<feColorMatrix in="SourceAlpha" type="matrix" values="0 0 0 0 0 0 0 0 0 0 0 0 0 0 0 0 0 0 127 0" result="hardAlpha"/>
<feOffset dx="-4" dy="4"/>
<feGaussianBlur stdDeviation="4.35"/>
<feComposite in2="hardAlpha" operator="out"/>
<feColorMatrix type="matrix" values="0 0 0 0 1 0 0 0 0 1 0 0 0 0 1 0 0 0 0.25 0"/>
<feBlend mode="normal" in2="BackgroundImageFix" result="effect1_dropShadow_509_3131"/>
<feColorMatrix in="SourceAlpha" type="matrix" values="0 0 0 0 0 0 0 0 0 0 0 0 0 0 0 0 0 0 127 0" result="hardAlpha"/>
<feOffset dx="-4" dy="10"/>
<feGaussianBlur stdDeviation="3.45"/>
<feComposite in2="hardAlpha" operator="out"/>
<feColorMatrix type="matrix" values="0 0 0 0 0.964706 0 0 0 0 0.392157 0 0 0 0 0.32549 0 0 0 0.3 0"/>
<feBlend mode="normal" in2="effect1_dropShadow_509_3131" result="effect2_dropShadow_509_3131"/>
<feBlend mode="normal" in="SourceGraphic" in2="effect2_dropShadow_509_3131" result="shape"/>
</filter>
<linearGradient id="paint0_linear_509_3131" x1="17.2852" y1="14.5511" x2="29.3064" y2="30.254" gradientUnits="userSpaceOnUse">
<stop stop-color="#FDA869"/>
<stop offset="1" stop-color="#F25A51"/>
</linearGradient>
<linearGradient id="paint1_linear_509_3131" x1="115.783" y1="15.2143" x2="103.496" y2="27.7719" gradientUnits="userSpaceOnUse">
<stop stop-color="#FFD175"/>
<stop offset="1" stop-color="#F76754"/>
</linearGradient>
<linearGradient id="paint2_linear_509_3131" x1="19.8916" y1="17.6833" x2="121.823" y2="101.879" gradientUnits="userSpaceOnUse">
<stop stop-color="#EF5350"/>
<stop offset="1" stop-color="#FF7F57"/>
</linearGradient>
<linearGradient id="paint3_linear_509_3131" x1="17.5241" y1="88.1221" x2="31.9262" y2="75.6908" gradientUnits="userSpaceOnUse">
<stop stop-color="#FFBE6F"/>
<stop offset="1" stop-color="#F66553"/>
</linearGradient>
<linearGradient id="paint4_linear_509_3131" x1="115.384" y1="88.1221" x2="102.459" y2="76.2201" gradientUnits="userSpaceOnUse">
<stop stop-color="#FFD175"/>
<stop offset="1" stop-color="#FB7255"/>
</linearGradient>
<linearGradient id="paint5_linear_509_3131" x1="126.729" y1="60.5" x2="108.355" y2="57.3703" gradientUnits="userSpaceOnUse">
<stop offset="0.3" stop-color="#FFD075"/>
<stop offset="0.805" stop-color="#FB7255"/>
</linearGradient>
<linearGradient id="paint6_linear_509_3131" x1="12.7881" y1="60.1483" x2="25.0391" y2="59.9934" gradientUnits="userSpaceOnUse">
<stop stop-color="#FEAE6A"/>
<stop offset="1" stop-color="#F45F52"/>
<stop offset="1.0001" stop-color="#FF9A62"/>
</linearGradient>
<linearGradient id="paint7_linear_509_3131" x1="66.7812" y1="77.4651" x2="66.7812" y2="91.3678" gradientUnits="userSpaceOnUse">
<stop stop-color="#E53935"/>
<stop offset="0.307292" stop-color="#F54C49"/>
</linearGradient>
<linearGradient id="paint8_linear_509_3131" x1="56.8349" y1="74.6846" x2="56.8349" y2="77.4651" gradientUnits="userSpaceOnUse">
<stop stop-color="#D9D9D9" stop-opacity="0"/>
<stop offset="0.307292" stop-color="#D9D9D9"/>
</linearGradient>
</defs>
</svg>
