<svg width="116" height="101" viewBox="0 0 116 101" fill="none" xmlns="http://www.w3.org/2000/svg">
<rect x="18.4297" y="21.6823" width="85.6449" height="79.1402" rx="29" fill="url(#paint0_linear_509_3145)"/>
<path d="M3.86116 18.8106L14.9549 37.036C15.1026 37.2787 15.2151 37.5411 15.289 37.8155L17.594 46.3722C18.0832 48.1881 20.1035 49.1114 21.7966 48.2927L36.4742 41.1963L46.5057 35.7399C47.6535 35.1156 49.0733 35.3059 50.0161 36.2105L67.6898 53.167C69.0997 54.5197 71.4057 54.1852 72.3732 52.4877L80.6235 38.0114C81.5866 36.3215 83.8784 35.9808 85.2914 37.3174L97.0813 48.4693C98.6178 49.9227 101.135 49.3725 101.926 47.4107L114.34 16.5881C115.134 14.6166 113.683 12.4673 111.557 12.4673H88.1804C87.2478 12.4673 86.3682 12.0335 85.8004 11.2936L78.7379 2.09005C77.8204 0.894464 76.1584 0.565072 74.8543 1.32038L57.2043 11.5429C56.2254 12.1099 55.0108 12.078 54.063 11.4604L39.3138 1.85017C37.8046 0.866844 35.7752 1.42574 34.9823 3.04307L27.9873 17.3109C27.359 18.5926 25.9145 19.254 24.5336 18.8924L7.18379 14.3487C4.57367 13.6651 2.45827 16.5059 3.86116 18.8106Z" fill="url(#paint1_linear_509_3145)"/>
<g filter="url(#filter0_d_509_3145)">
<path d="M42.1362 64.56C41.6983 67.1749 40.7686 69.4024 39.5201 70.828C38.2716 72.2535 36.7894 72.78 35.3494 72.3095C33.9093 71.839 32.6095 70.4036 31.6917 68.2703C30.774 66.137 30.3009 63.4511 30.3605 60.7126C30.42 57.9741 31.0082 55.3694 32.0156 53.3833C33.0229 51.3972 34.3808 50.165 35.8365 49.9159C37.2922 49.6668 38.7466 50.4179 39.929 52.0294C41.1114 53.6408 41.9413 56.0029 42.2642 58.6759L36.3843 61.1732L42.1362 64.56Z" fill="url(#paint2_linear_509_3145)" shape-rendering="crispEdges"/>
</g>
<g filter="url(#filter1_d_509_3145)">
<path d="M88.7524 64.56C88.3145 67.1749 87.3848 69.4024 86.1363 70.828C84.8878 72.2535 83.4056 72.78 81.9656 72.3095C80.5255 71.839 79.2257 70.4036 78.308 68.2703C77.3902 66.137 76.9171 63.4511 76.9767 60.7126C77.0363 57.9741 77.6244 55.3694 78.6318 53.3833C79.6391 51.3972 80.997 50.165 82.4527 49.9159C83.9084 49.6668 85.3628 50.4179 86.5452 52.0294C87.7276 53.6408 88.5575 56.0029 88.8804 58.6759L83.0005 61.1732L88.7524 64.56Z" fill="url(#paint3_linear_509_3145)" shape-rendering="crispEdges"/>
</g>
<path d="M71.1353 79.6823C71.1353 86.2315 65.3651 91.7337 57.9998 91.7337C50.6344 91.7337 44.8643 86.2315 44.8643 79.6823C44.8643 73.1331 50.6344 67.6309 57.9998 67.6309C65.3651 67.6309 71.1353 73.1331 71.1353 79.6823Z" fill="#5A5A5A" stroke="url(#paint4_linear_509_3145)" stroke-width="3"/>
<path d="M64.6537 72.4582C64.1537 74.1835 62.5828 75.2442 61.1452 74.8275C59.7075 74.4108 58.9474 72.6745 59.4475 70.9492C59.9475 69.2239 61.0656 69.7251 62.5033 70.1418C63.941 70.5586 65.1538 70.733 64.6537 72.4582Z" fill="#D9D9D9"/>
<defs>
<filter id="filter0_d_509_3145" x="28.9652" y="48.4789" width="17.4703" height="28.1693" filterUnits="userSpaceOnUse" color-interpolation-filters="sRGB">
<feFlood flood-opacity="0" result="BackgroundImageFix"/>
<feColorMatrix in="SourceAlpha" type="matrix" values="0 0 0 0 0 0 0 0 0 0 0 0 0 0 0 0 0 0 127 0" result="hardAlpha"/>
<feOffset dx="1.39027" dy="1.39027"/>
<feGaussianBlur stdDeviation="1.39027"/>
<feComposite in2="hardAlpha" operator="out"/>
<feColorMatrix type="matrix" values="0 0 0 0 0 0 0 0 0 0 0 0 0 0 0 0 0 0 0.25 0"/>
<feBlend mode="normal" in2="BackgroundImageFix" result="effect1_dropShadow_509_3145"/>
<feBlend mode="normal" in="SourceGraphic" in2="effect1_dropShadow_509_3145" result="shape"/>
</filter>
<filter id="filter1_d_509_3145" x="75.5814" y="48.4789" width="17.4703" height="28.1693" filterUnits="userSpaceOnUse" color-interpolation-filters="sRGB">
<feFlood flood-opacity="0" result="BackgroundImageFix"/>
<feColorMatrix in="SourceAlpha" type="matrix" values="0 0 0 0 0 0 0 0 0 0 0 0 0 0 0 0 0 0 127 0" result="hardAlpha"/>
<feOffset dx="1.39027" dy="1.39027"/>
<feGaussianBlur stdDeviation="1.39027"/>
<feComposite in2="hardAlpha" operator="out"/>
<feColorMatrix type="matrix" values="0 0 0 0 0 0 0 0 0 0 0 0 0 0 0 0 0 0 0.25 0"/>
<feBlend mode="normal" in2="BackgroundImageFix" result="effect1_dropShadow_509_3145"/>
<feBlend mode="normal" in="SourceGraphic" in2="effect1_dropShadow_509_3145" result="shape"/>
</filter>
<linearGradient id="paint0_linear_509_3145" x1="94.8596" y1="92.1495" x2="22.2241" y2="36.8598" gradientUnits="userSpaceOnUse">
<stop stop-color="#B9B9B9"/>
<stop offset="1" stop-color="#F0F0F0"/>
</linearGradient>
<linearGradient id="paint1_linear_509_3145" x1="106.433" y1="46.0748" x2="26.683" y2="-4.81855" gradientUnits="userSpaceOnUse">
<stop stop-color="#626262"/>
<stop offset="1" stop-color="#D8D8D8"/>
</linearGradient>
<linearGradient id="paint2_linear_509_3145" x1="36.3843" y1="49.8691" x2="36.3843" y2="72.4773" gradientUnits="userSpaceOnUse">
<stop stop-color="#343434"/>
<stop offset="1" stop-color="#2B2B2B" stop-opacity="0.78"/>
</linearGradient>
<linearGradient id="paint3_linear_509_3145" x1="83.0005" y1="49.8691" x2="83.0005" y2="72.4773" gradientUnits="userSpaceOnUse">
<stop stop-color="#343434"/>
<stop offset="1" stop-color="#2B2B2B" stop-opacity="0.78"/>
</linearGradient>
<linearGradient id="paint4_linear_509_3145" x1="46.9998" y1="70" x2="70.7153" y2="87.532" gradientUnits="userSpaceOnUse">
<stop stop-color="#A7A7A7" stop-opacity="0.6"/>
<stop offset="1" stop-color="#616161"/>
</linearGradient>
</defs>
</svg>
