<svg width="32" height="32" viewBox="0 0 32 32" fill="none" xmlns="http://www.w3.org/2000/svg">
<path fill-rule="evenodd" clip-rule="evenodd" d="M16 5C9.92487 5 5 9.92487 5 16C5 22.0751 9.92487 27 16 27C22.0751 27 27 22.0751 27 16C27 9.92487 22.0751 5 16 5ZM16 11C16.5523 11 17 11.4477 17 12V15H20C20.5523 15 21 15.4477 21 16C21 16.5523 20.5523 17 20 17H17V20C17 20.5523 16.5523 21 16 21C15.4477 21 15 20.5523 15 20V17H12C11.4477 17 11 16.5523 11 16C11 15.4477 11.4477 15 12 15H15V12C15 11.4477 15.4477 11 16 11Z" fill="#0D0D0D"/>
</svg>
