<svg width="32" height="33" viewBox="0 0 32 33" fill="none" xmlns="http://www.w3.org/2000/svg">
<path d="M10.9249 9.04119C10.1801 9.87495 9.93848 10.8773 9.93848 11.5V12.5H7.93848V11.5C7.93848 10.4561 8.31714 8.95839 9.43335 7.70881C10.5789 6.42644 12.416 5.5 15.1418 5.5H16.9141C19.6399 5.5 21.477 6.42644 22.6225 7.70881C23.7387 8.95839 24.1174 10.4561 24.1174 11.5V12.5H22.1174V11.5C22.1174 10.8773 21.8757 9.87495 21.131 9.04119C20.4155 8.24023 19.1509 7.5 16.9141 7.5H15.1418C12.9049 7.5 11.6404 8.24023 10.9249 9.04119Z" fill="#0D0D0D"/>
<path fill-rule="evenodd" clip-rule="evenodd" d="M6.65161 13.5C5.32285 13.5 4.36352 14.7718 4.72856 16.0494L7.5857 26.0494C7.83102 26.908 8.61579 27.5 9.50875 27.5H22.4915C23.3845 27.5 24.1693 26.908 24.4146 26.0494L27.2717 16.0494C27.6368 14.7718 26.6774 13.5 25.3487 13.5H6.65161ZM12.5001 17.5C12.5001 16.9477 12.0524 16.5 11.5001 16.5C10.9478 16.5 10.5001 16.9477 10.5001 17.5V23.5C10.5001 24.0523 10.9478 24.5 11.5001 24.5C12.0524 24.5 12.5001 24.0523 12.5001 23.5V17.5ZM14.5001 16.5C15.0524 16.5 15.5001 16.9477 15.5001 17.5V23.5C15.5001 24.0523 15.0524 24.5 14.5001 24.5C13.9478 24.5 13.5001 24.0523 13.5001 23.5V17.5C13.5001 16.9477 13.9478 16.5 14.5001 16.5ZM18.5001 17.5C18.5001 16.9477 18.0524 16.5 17.5001 16.5C16.9478 16.5 16.5001 16.9477 16.5001 17.5V23.5C16.5001 24.0523 16.9478 24.5 17.5001 24.5C18.0524 24.5 18.5001 24.0523 18.5001 23.5V17.5ZM20.5001 16.5C21.0524 16.5 21.5001 16.9477 21.5001 17.5V23.5C21.5001 24.0523 21.0524 24.5 20.5001 24.5C19.9478 24.5 19.5001 24.0523 19.5001 23.5V17.5C19.5001 16.9477 19.9478 16.5 20.5001 16.5Z" fill="#0D0D0D"/>
</svg>
