<svg width="171" height="57" viewBox="0 0 171 57" fill="none" xmlns="http://www.w3.org/2000/svg">
<path fill-rule="evenodd" clip-rule="evenodd" d="M22.5945 3.75C22.9275 2.45608 24.1021 1.5 25.5 1.5C26.8979 1.5 28.0725 2.45608 28.4055 3.75H42C46.1421 3.75 49.5 7.10786 49.5 11.25V42.75C49.5 43.5784 48.8284 44.25 48 44.25H3C2.17157 44.25 1.5 43.5784 1.5 42.75V11.25C1.5 7.10786 4.85786 3.75 9 3.75H22.5945ZM3 48C2.44772 48 2 48.4477 2 49C2 51.7614 4.23858 54 7 54H12.1707C12.5825 55.1652 13.6938 56 15 56H35C36.3062 56 37.4175 55.1652 37.8293 54H45C47.7614 54 50 51.7614 50 49C50 48.4477 49.5523 48 49 48H3ZM13.9633 9.3114C13.4852 9.7895 13.4579 10.5558 13.9007 11.0668L18.6302 16.5239C18.8645 16.7582 18.8645 17.1381 18.6302 17.3724C18.3959 17.6067 18.016 17.6067 17.7817 17.3724L11.8712 12.2499C11.6157 12.0285 11.2325 12.0422 10.9935 12.2812C10.7544 12.5203 10.7408 12.9035 10.9622 13.1589L16.0846 19.0695C16.319 19.3038 16.319 19.6837 16.0846 19.918C15.8503 20.1523 15.4704 20.1523 15.2361 19.918L9.77898 15.1885C9.26803 14.7457 8.50173 14.773 8.02362 15.2511L13.1148 22.0393C14.7773 23.7019 17.2543 24.0537 19.2615 23.0948L22.5671 26.4004L13.3517 35.6158C12.6488 36.3187 12.6488 37.4584 13.3517 38.1613C14.0547 38.8643 15.1944 38.8643 15.8973 38.1613L25.1127 28.946L34.328 38.1614C35.0309 38.8643 36.1706 38.8643 36.8736 38.1614C37.5765 37.4584 37.5765 36.3187 36.8736 35.6158L27.6582 26.4004L30.9638 23.0948C32.9711 24.0537 35.448 23.7019 37.1105 22.0393L39.2319 19.918C41.3407 17.8092 41.3407 14.3901 39.2319 12.2812C37.123 10.1724 33.7039 10.1724 31.5951 12.2812L29.4738 14.4026C27.8112 16.0651 27.4594 18.542 28.4183 20.5492L25.1127 23.8548L21.8071 20.5493C22.7659 18.542 22.4141 16.0651 20.7515 14.4026L13.9633 9.3114Z" fill="#EF5350"/>
<path d="M61.216 36.168C60.816 36.168 60.504 36.056 60.28 35.832C60.072 35.608 59.968 35.296 59.968 34.896V20.184C59.968 19.768 60.072 19.456 60.28 19.248C60.504 19.024 60.816 18.912 61.216 18.912C61.616 18.912 61.92 19.024 62.128 19.248C62.352 19.456 62.464 19.768 62.464 20.184V34.896C62.464 35.296 62.36 35.608 62.152 35.832C61.944 36.056 61.632 36.168 61.216 36.168ZM67.5659 36.168C67.1979 36.168 66.9099 36.064 66.7019 35.856C66.4939 35.648 66.3899 35.352 66.3899 34.968V20.16C66.3899 19.76 66.4859 19.456 66.6779 19.248C66.8859 19.024 67.1579 18.912 67.4939 18.912C67.7819 18.912 67.9979 18.968 68.1419 19.08C68.3019 19.176 68.4859 19.36 68.6939 19.632L78.5819 32.664H77.9819V20.088C77.9819 19.72 78.0779 19.432 78.2699 19.224C78.4779 19.016 78.7659 18.912 79.1339 18.912C79.5179 18.912 79.8059 19.016 79.9979 19.224C80.1899 19.432 80.2859 19.72 80.2859 20.088V34.992C80.2859 35.36 80.1899 35.648 79.9979 35.856C79.8219 36.064 79.5819 36.168 79.2779 36.168C78.9899 36.168 78.7499 36.112 78.5579 36C78.3819 35.888 78.1899 35.696 77.9819 35.424L68.1419 22.416H68.6939V34.968C68.6939 35.352 68.5979 35.648 68.4059 35.856C68.2139 36.064 67.9339 36.168 67.5659 36.168ZM89.6018 36.168C89.2018 36.168 88.8898 36.056 88.6658 35.832C88.4578 35.608 88.3538 35.296 88.3538 34.896V21.168H83.2658C82.9298 21.168 82.6658 21.08 82.4738 20.904C82.2818 20.712 82.1858 20.448 82.1858 20.112C82.1858 19.776 82.2818 19.52 82.4738 19.344C82.6658 19.168 82.9298 19.08 83.2658 19.08H95.9138C96.2658 19.08 96.5378 19.168 96.7298 19.344C96.9218 19.52 97.0178 19.776 97.0178 20.112C97.0178 20.448 96.9218 20.712 96.7298 20.904C96.5378 21.08 96.2658 21.168 95.9138 21.168H90.8258V34.896C90.8258 35.296 90.7218 35.608 90.5138 35.832C90.3218 36.056 90.0178 36.168 89.6018 36.168ZM100.242 36C99.8097 36 99.4737 35.888 99.2337 35.664C99.0097 35.424 98.8977 35.088 98.8977 34.656V20.424C98.8977 19.992 99.0097 19.664 99.2337 19.44C99.4737 19.2 99.8097 19.08 100.242 19.08H109.002C109.338 19.08 109.594 19.168 109.77 19.344C109.946 19.504 110.034 19.744 110.034 20.064C110.034 20.4 109.946 20.656 109.77 20.832C109.594 21.008 109.338 21.096 109.002 21.096H101.298V26.4H108.474C108.826 26.4 109.082 26.488 109.242 26.664C109.418 26.84 109.506 27.088 109.506 27.408C109.506 27.744 109.418 28 109.242 28.176C109.082 28.336 108.826 28.416 108.474 28.416H101.298V33.984H109.002C109.338 33.984 109.594 34.072 109.77 34.248C109.946 34.424 110.034 34.672 110.034 34.992C110.034 35.328 109.946 35.584 109.77 35.76C109.594 35.92 109.338 36 109.002 36H100.242ZM114.279 36.168C113.879 36.168 113.567 36.056 113.343 35.832C113.135 35.608 113.031 35.296 113.031 34.896V20.352C113.031 19.936 113.143 19.624 113.367 19.416C113.591 19.192 113.903 19.08 114.303 19.08H120.039C121.863 19.08 123.271 19.512 124.263 20.376C125.255 21.24 125.751 22.464 125.751 24.048C125.751 25.072 125.527 25.952 125.079 26.688C124.631 27.424 123.975 27.984 123.111 28.368C122.263 28.752 121.239 28.944 120.039 28.944L120.255 28.608H120.879C121.519 28.608 122.071 28.768 122.535 29.088C123.015 29.408 123.447 29.92 123.831 30.624L125.895 34.464C126.055 34.752 126.127 35.032 126.111 35.304C126.111 35.56 126.015 35.768 125.823 35.928C125.647 36.088 125.391 36.168 125.055 36.168C124.703 36.168 124.415 36.096 124.191 35.952C123.983 35.792 123.791 35.56 123.615 35.256L121.095 30.6C120.759 29.976 120.375 29.56 119.943 29.352C119.511 29.128 118.943 29.016 118.239 29.016H115.527V34.896C115.527 35.296 115.423 35.608 115.215 35.832C115.007 36.056 114.695 36.168 114.279 36.168ZM115.527 27.144H119.631C120.847 27.144 121.767 26.888 122.391 26.376C123.015 25.864 123.327 25.104 123.327 24.096C123.327 23.104 123.015 22.352 122.391 21.84C121.767 21.328 120.847 21.072 119.631 21.072H115.527V27.144ZM130.617 36C130.185 36 129.849 35.888 129.609 35.664C129.385 35.424 129.273 35.088 129.273 34.656V20.424C129.273 19.992 129.385 19.664 129.609 19.44C129.849 19.2 130.185 19.08 130.617 19.08H139.377C139.713 19.08 139.969 19.168 140.145 19.344C140.321 19.504 140.409 19.744 140.409 20.064C140.409 20.4 140.321 20.656 140.145 20.832C139.969 21.008 139.713 21.096 139.377 21.096H131.673V26.4H138.849C139.201 26.4 139.457 26.488 139.617 26.664C139.793 26.84 139.881 27.088 139.881 27.408C139.881 27.744 139.793 28 139.617 28.176C139.457 28.336 139.201 28.416 138.849 28.416H131.673V33.984H139.377C139.713 33.984 139.969 34.072 140.145 34.248C140.321 34.424 140.409 34.672 140.409 34.992C140.409 35.328 140.321 35.584 140.145 35.76C139.969 35.92 139.713 36 139.377 36H130.617ZM148.811 36.216C148.075 36.216 147.355 36.16 146.651 36.048C145.947 35.936 145.283 35.768 144.659 35.544C144.035 35.304 143.475 35.016 142.979 34.68C142.739 34.504 142.571 34.304 142.475 34.08C142.395 33.856 142.371 33.64 142.403 33.432C142.451 33.208 142.547 33.016 142.691 32.856C142.835 32.696 143.011 32.6 143.219 32.568C143.427 32.52 143.659 32.584 143.915 32.76C144.635 33.224 145.395 33.568 146.195 33.792C146.995 34 147.867 34.104 148.811 34.104C150.171 34.104 151.171 33.864 151.811 33.384C152.467 32.888 152.795 32.248 152.795 31.464C152.795 30.824 152.563 30.32 152.099 29.952C151.635 29.568 150.859 29.264 149.771 29.04L147.203 28.512C145.683 28.192 144.547 27.664 143.795 26.928C143.059 26.192 142.691 25.2 142.691 23.952C142.691 23.2 142.843 22.512 143.147 21.888C143.467 21.264 143.907 20.728 144.467 20.28C145.027 19.816 145.699 19.464 146.483 19.224C147.267 18.984 148.123 18.864 149.051 18.864C150.043 18.864 150.971 18.992 151.835 19.248C152.715 19.504 153.499 19.896 154.187 20.424C154.395 20.568 154.531 20.752 154.595 20.976C154.675 21.184 154.691 21.392 154.643 21.6C154.611 21.808 154.523 21.984 154.379 22.128C154.235 22.272 154.051 22.36 153.827 22.392C153.603 22.408 153.355 22.328 153.083 22.152C152.459 21.736 151.819 21.44 151.163 21.264C150.523 21.072 149.811 20.976 149.027 20.976C148.243 20.976 147.555 21.096 146.963 21.336C146.387 21.576 145.939 21.912 145.619 22.344C145.315 22.776 145.163 23.288 145.163 23.88C145.163 24.552 145.379 25.088 145.811 25.488C146.243 25.888 146.963 26.192 147.971 26.4L150.515 26.928C152.115 27.264 153.307 27.784 154.091 28.488C154.875 29.192 155.267 30.128 155.267 31.296C155.267 32.048 155.115 32.728 154.811 33.336C154.507 33.928 154.075 34.44 153.515 34.872C152.955 35.304 152.275 35.64 151.475 35.88C150.691 36.104 149.803 36.216 148.811 36.216ZM163.125 36.168C162.725 36.168 162.413 36.056 162.189 35.832C161.981 35.608 161.877 35.296 161.877 34.896V21.168H156.789C156.453 21.168 156.189 21.08 155.997 20.904C155.805 20.712 155.709 20.448 155.709 20.112C155.709 19.776 155.805 19.52 155.997 19.344C156.189 19.168 156.453 19.08 156.789 19.08H169.437C169.789 19.08 170.061 19.168 170.253 19.344C170.445 19.52 170.541 19.776 170.541 20.112C170.541 20.448 170.445 20.712 170.253 20.904C170.061 21.08 169.789 21.168 169.437 21.168H164.349V34.896C164.349 35.296 164.245 35.608 164.037 35.832C163.845 36.056 163.541 36.168 163.125 36.168Z" fill="#0D0D0D"/>
</svg>
